<?xml version="1.0" encoding="iso-8859-1"?>
<!-- Uploaded to: SVG Repo, www.svgrepo.com, Generator: SVG Repo Mixer Tools -->
<svg height="800px" width="800px" version="1.1" id="Layer_1" xmlns="http://www.w3.org/2000/svg" xmlns:xlink="http://www.w3.org/1999/xlink" 
	 viewBox="0 0 512 512" xml:space="preserve">
<polygon style="opacity:0.41;fill:#77757E;enable-background:new    ;" points="506.928,366.243 165.546,366.243 338.774,256 "/>
<path style="fill:#ACAAB1;" d="M222.355,260.728C80.509,260.728,0,209.253,0,145.757h170.923L222.355,260.728z"/>
<path style="opacity:0.41;fill:#77757E;enable-background:new    ;" d="M222.355,260.728C80.509,260.728,0,209.253,0,145.757
	h170.923L222.355,260.728z"/>
<g>
	<path style="opacity:0.3;fill:#3E3B43;enable-background:new    ;" d="M5.815,146.236H0c0,63.496,80.509,114.971,222.355,114.971
		l-12.91-28.858C97.19,229.804,25.877,194.031,5.815,146.236z"/>
	<path style="opacity:0.41;fill:#3E3B43;enable-background:new    ;" d="M170.923,145.757H0c0,8.38,1.416,16.548,4.178,24.418
		h177.67L170.923,145.757z"/>
</g>
<polygon style="opacity:0.58;fill:#77757E;enable-background:new    ;" points="506.928,366.243 165.546,366.243 338.774,256 "/>
<polygon style="fill:#ACAAB1;" points="165.546,366.243 165.546,335.516 227.178,267.426 170.923,189.29 170.923,145.757 
	300.406,145.757 326.079,145.757 512,145.757 512,189.29 445.297,267.426 506.928,335.516 506.928,366.243 338.774,305.377 "/>
<polygon style="opacity:0.26;fill:#3E3B43;enable-background:new    ;" points="511.022,145.757 473.564,145.757 473.564,189.29 
	406.861,267.426 468.493,335.515 468.493,366.243 505.95,366.243 505.95,335.515 444.319,267.426 511.022,189.29 "/>
<g style="opacity:0.79;">
	<polygon style="fill:#3E3B43;" points="512,145.757 326.079,145.757 300.406,145.757 170.923,145.757 170.923,170.175 512,170.175 
			"/>
</g>
<polygon style="opacity:0.18;fill:#FFFFFF;enable-background:new    ;" points="402.044,146.128 190.935,357.237 337.475,305.748 
	338.703,306.193 498.767,146.128 "/>
</svg>